<svg version="1.2" xmlns="http://www.w3.org/2000/svg" viewBox="0 0 1234 1523" width="1234" height="1523">
	<title>Petronas_2013_logo-svg</title>
	<style>
		.s0 { fill: #00a89c } 
	</style>
	<g id="layer1">
		<g id="g12381">
			<path id="path8158" class="s0" d="m511.2 1294.9c-156.6 0-283.1-126.6-283.1-283.2 0-156.6 126.5-283.1 283.1-283.1 156.6 0 283.2 126.5 283.2 283.1 0 156.6-126.6 283.2-283.2 283.2z"/>
			<path id="path8160" fill-rule="evenodd" class="s0" d="m948.1 748c46.6 77 73.5 167.2 73.5 263.8 0 281.8-228.5 510.2-510.4 510.2-95.9 0-185.9-26.6-262.7-72.7-148.3-89.2-247.6-251.8-247.6-437.5 0-93.9 25.8-182.7 70-258.1 0.2-0.4 356-616.9 356-616.9 58.8-101.5 99.3-131.9 253.6-135.9h553.5l-358.7 620.9zm-350.7-607.6l131.7 228.2 70.8 122.7 208-360h-324.6c-41.2 0-66.9 2.6-85.9 9.1zm294.1 871.3c0-70.3-19.1-136.2-52.3-192.6-0.2-0.1-0.2-0.1-0.2-0.2l-200.3-347.2v-0.1l-127.6-220.7c-1.2 2.3-328 568.1-328 568.1-33.3 56.5-52.2 122.4-52.2 192.7 0 116.7 52.5 221.1 135.3 290.9 66.2 55.7 151.7 89.4 245 89.4 210 0 380.3-170.3 380.3-380.3z"/>
		</g>
	</g>
</svg>