<svg version="1.2" xmlns="http://www.w3.org/2000/svg" viewBox="0 0 1593 1635" width="1593" height="1635">
	<title>Petronas_2013_logo-svg</title>
	<style>
		.s0 { fill: #00a89c } 
		.s1 { fill: #000000 } 
	</style>
	<g id="layer1">
		<g id="g12381">
			<path id="path8158" class="s0" d="m711.5 1039.8c-125.7 0-227.3-101.6-227.3-227.4 0-125.7 101.6-227.3 227.3-227.3 125.8 0 227.4 101.6 227.4 227.3 0 125.8-101.6 227.4-227.4 227.4z"/>
			<path id="path8160" fill-rule="evenodd" class="s0" d="m1062.4 600.7c37.4 61.8 59 134.3 59 211.8 0 226.3-183.5 409.7-409.8 409.7-77.1 0-149.4-21.4-211-58.4-119.1-71.6-198.9-202.2-198.9-351.3 0-75.4 20.8-146.7 56.3-207.3 0.1-0.3 285.9-495.3 285.9-495.3 47.1-81.6 79.7-106 203.6-109.2h444.5l-288.1 498.6zm-281.6-487.9l105.8 183.3 56.8 98.5 167-289.1h-260.6c-33.1 0-53.8 2.1-69 7.3zm236.2 699.7c0-56.5-15.4-109.4-42-154.7-0.2-0.1-0.2-0.1-0.2-0.2l-160.8-278.8v-0.1l-102.5-177.2c-1 1.9-263.4 456.2-263.4 456.2-26.8 45.4-42 98.3-42 154.8 0 93.7 42.3 177.5 108.8 233.6 53.1 44.7 121.7 71.8 196.7 71.8 168.6 0 305.4-136.8 305.4-305.4z"/>
			<path id="path8162" fill-rule="evenodd" class="s1" d="m694 1561.7l46.9 68.3h-65.3l-39.2-58.2h-20c-3.2 0-6.5 3.5-6.5 6.8v51.4h-56.4v-190.5c0-7.1 6.8-13.3 14.5-13.3h79.6c51.5 0 84.7 26.6 84.7 71.9v0.4c0 30.2-14.7 51.5-38.3 63.2zm-50.7-87.9h-24.5c-4.9 0-8.9 4-8.9 8.8v45h33.8c20.1 0 32.2-10.5 32.2-26.5 0-18-12.1-27.3-32.6-27.3zm323 53.8v0.7c0 58.3-47.3 105.9-110.2 105.9-62.8 0-109.4-46.8-109.4-105.5v-0.4c0-58.6 47.1-106.1 109.9-106.1 62.9 0 109.7 46.9 109.7 105.4zm-110.2-54.5c-30.8 0-51.5 25-51.5 54.5v0.7c0 29.3 21.3 54.8 52 54.8 31.4 0 51.9-25 51.9-54.4 0-29.9-21.2-55.6-52.4-55.6zm284.5-46.9h41.4v203.8h-49.3l-87.1-111.7v111.7h-55.9v-189.2c0-8 6.5-14.6 14.5-14.6h38.3l83.8 107.8v-94.7c0-7.3 6.8-13.1 14.3-13.1zm-764.2 0.1h164.2v49.5h-54c-4.2 0-7.2 3-7.2 6.4v147.9h-56.5v-154.3h-61v-35.6c0-7.1 6.6-13.9 14.5-13.9zm-203.8 71.7v0.5c0 48-36.9 73.2-87.6 73.2h-21.4c-3.2 0-6.5 3.7-6.5 6.9v51.4h-56.4v-190.5c0-7.1 6.8-13.3 14.4-13.3h72.8c51.6 0 84.7 26.5 84.7 71.8zm-89.1-24.2h-26.4v53.7h26.8c20.2 0 32.3-10.4 32.3-26.4 0-18-12.1-27.3-32.7-27.3zm115.8-47.5h149.4v48h-101.4c-3.5 0-6.6 4.1-6.6 7.7v23.2h95.3v44.4h-88.3c-3.6 0-7 4-7 7.7v24.6h108v48.1h-163.9v-189.7c0-7.6 6.7-14 14.5-14zm1393.7 140.3v0.6c0 41.6-32.9 66.3-82.3 66.3-36.1 0-70.5-11.4-95.5-33.6l21.3-25.5c2.4-3 4.7-5 7.8-5.6 7.3-1.6 12.9 1.4 17.4 3.7 16 9.3 33.2 14.1 51 14.1 15.1 0 23.1-5.1 23.1-14v-0.4c0-8.4-6.5-13.3-34.2-19.5-43.2-10-76.9-22.3-76.9-64.1v-0.6c0-37.8 30.1-65.2 78.9-65.2 34.8 0 61.7 9.2 83.8 27.1l-17.7 25c-3.5 4.3-6.3 7.7-10.2 8.6-5.6 1.2-10-0.3-13.9-2-1.3-0.7-4.2-2.2-4.2-2.2-13.3-6.4-26.7-9.7-39.2-9.7-13.7 0-20.4 5.9-20.4 13.2v0.7c0 9.2 6.9 13.1 35.3 19.6 46.7 10.2 75.9 25.4 75.9 63.5zm-398.8 63.3l82.2-194.4c2.4-4.9 5.2-8.4 12-9.3h46.3l86.2 203.7h-60.6l-14.2-34.7h-72.9c-4.2 0.7-7.8 5-9.4 9l-10.2 25.7zm89.8-78.8h45.8l-22.7-57.9z"/>
		</g>
	</g>
</svg>