<svg width="800px" height="800px" viewBox="-4.48 0 315.587 315.587" xmlns="http://www.w3.org/2000/svg"><defs><style>.a{fill:#bd957a;}.b{fill:#211715;}.c{fill:#ffffff;}.d{fill:#cfcfcf;}</style></defs><path class="a" d="M127.458,31.062c5.98-5.561,23.011-22.573,30.313-28.585,55.877.007,111.863.007,116.117.007,7.294,6,24.363,23.1,30.053,28.578,0,15.66.284,233.508.284,233.8-18.191-.006-159.927-.006-176.741-.008,0-1.023-.062-240.545.006-233.623Z"/><path class="b" d="M304.225,262.459q-11.453,0-22.9,0l-40.179,0H127.484l2.4,2.4q0-3.25,0-6.5,0-8.549,0-17.1,0-12.613,0-25.225l-.006-30.593q0-16.734,0-33.467l0-33.888q0-15.8,0-31.593,0-13.308,0-26.614,0-9.593.008-19.183c0-3.058.062-6.122.014-9.18-.006-.372.131-.9-.081.207l-2.315,1.762h0l-2.315-1.762c-.013-.066-.087-.932-.083-.491a2.437,2.437,0,0,0,2.4,2.4q11.355.012,22.711-.009,19.2-.015,38.39-.038,22.237-.024,44.474-.051,20.479-.023,40.96-.045,13.923-.014,27.847-.022h2.069l-2.4-2.4q0,5.007.008,10.013.009,9.59.02,19.18.015,13.015.031,26.032.018,15.339.037,30.678.021,16.371.041,32.743.019,16.295.041,32.589.02,15.1.038,30.211l.033,25.258q.011,9.05.023,18.1c0,2.869-.049,5.745.011,8.614,0,.127,0,.255,0,.382,0,3.088,4.8,3.094,4.8,0q0-2.971-.008-5.942l-.021-16-.03-23.731q-.019-14.625-.037-29.25-.021-16.1-.041-32.2-.021-16.461-.041-32.921l-.039-31.426q-.017-13.673-.032-27.345-.012-10.532-.023-21.061-.007-6.235-.011-12.471,0-.725,0-1.449a2.435,2.435,0,0,0-2.4-2.4q-12.774,0-25.55.019-19.926.019-39.853.043l-44.559.051q-19.835.023-39.668.041-12.59.011-25.179.013H127.49l2.4,2.4a3.759,3.759,0,0,0-.088-.785,2.4,2.4,0,0,0-2.314-1.762h0a2.463,2.463,0,0,0-2.314,1.762c-.416,2.172-.1,4.637-.1,6.829q-.009,8.466-.009,16.932,0,12.539,0,25.075,0,15.309,0,30.617l0,33.437q0,16.953,0,33.906,0,15.829.006,31.66,0,13.406,0,26.812,0,9.682,0,19.366c0,3.1-.047,6.207,0,9.308,0,.155,0,.31,0,.466a2.435,2.435,0,0,0,2.4,2.4h108.2l41.393,0q12.81,0,25.619,0h1.527C307.313,267.26,307.318,262.46,304.225,262.459Z"/><path class="b" d="M129.155,32.759c8.2-7.636,16.048-15.637,24.281-23.239,1.973-1.822,3.961-3.634,6.032-5.346l-1.7.7,62.333.006h53.784l-1.7-.7c8.772,7.241,16.74,15.539,24.85,23.5,1.73,1.7,3.457,3.4,5.2,5.08,2.225,2.144,5.624-1.246,3.394-3.394C296.9,20.946,288.412,12.254,279.4,4.114c-1.529-1.382-3.655-3.96-5.794-4.03-.978-.032-1.963,0-2.941,0H257.98l-45.321,0L183.53.08l-15.045,0h-7.721c-1.182,0-2.826-.274-3.918.206a8.116,8.116,0,0,0-1.811,1.369C145.59,9.726,136.924,18.716,127.948,27.3q-1.087,1.041-2.187,2.069c-2.265,2.11,1.135,5.5,3.394,3.394Z"/><path class="c" d="M141.359,89.1c-21.05,5.744-115.121,31.561-136.082,37.28a3.987,3.987,0,0,0-2.807,4.875c3.55,13.4,9.377,36.038,11.229,42.95C18.01,190.3,45.01,288.371,50.992,310.275a3.987,3.987,0,0,0,4.884,2.805c21.794-5.831,115.939-31,136.806-36.582a3.991,3.991,0,0,0,2.825-4.909c-6.084-22.305-33.319-121.309-37.929-138.515-1.447-5.4-8.21-29.776-11.317-41.165A3.99,3.99,0,0,0,141.359,89.1Z"/><path class="b" d="M140.721,86.79q-12.378,3.378-24.749,6.773l-37.44,10.262L39.616,114.494Q24.8,118.553,9.985,122.609l-4.622,1.263a7.239,7.239,0,0,0-4.115,2.514,6.877,6.877,0,0,0-.9,6.232Q3.412,144.2,6.407,155.8c2.337,8.985,4.674,17.969,7.114,26.927q3.982,14.625,8,29.241,5.24,19.107,10.488,38.212,5.016,18.262,10.032,36.525,1.961,7.14,3.918,14.279c.906,3.3,1.7,6.657,2.718,9.925a6.539,6.539,0,0,0,4.583,4.506,8.436,8.436,0,0,0,4.311-.307l4.864-1.3,13.417-3.589,36.293-9.7,39.621-10.594,32.084-8.579,5.63-1.505a25.07,25.07,0,0,0,5.209-1.579,6.451,6.451,0,0,0,3.355-5.5,11.48,11.48,0,0,0-.618-3.264q-.66-2.418-1.322-4.834-4.062-14.837-8.136-29.67-5.247-19.122-10.495-38.245-5.052-18.417-10.1-36.835-3.42-12.5-6.817-25c-2.906-10.754-5.891-21.486-8.849-32.226q-1.311-4.76-2.617-9.521c-.461-1.684-.842-3.4-2.116-4.688a6.582,6.582,0,0,0-6.258-1.695c-3.011.686-1.737,5.315,1.276,4.629,1.454-.332,1.886.894,2.2,2.054q.589,2.157,1.182,4.313,1.425,5.191,2.858,10.383,2.776,10.071,5.551,20.142c1.84,6.7,3.64,13.415,5.469,20.12q4.413,16.168,8.85,32.332,5.242,19.128,10.493,38.253,4.725,17.215,9.447,34.43,1.748,6.369,3.491,12.738l1.29,4.716c.2.74.61,1.62.3,2.354-.365.87-1.292.985-2.1,1.2q-12.648,3.384-25.3,6.765l-37.159,9.935-38.519,10.3-29.378,7.856-4.626,1.237c-.856.229-1.745.509-2.424-.268a5.907,5.907,0,0,1-.748-2.2q-1.462-5.351-2.932-10.7-4.407-16.065-8.821-32.127-5.23-19.042-10.459-38.085-4.67-17.016-9.33-34.034c-1.863-6.81-3.745-13.615-5.558-20.438C12.1,158.834,8.331,144.972,4.9,131.052c-.571-2.313,1.543-2.5,3.281-2.972l5.024-1.374,13.416-3.673q17.784-4.872,35.567-9.748l38.825-10.644q15.741-4.314,31.484-8.625,4.751-1.3,9.5-2.6C144.973,90.606,143.71,85.975,140.721,86.79Z"/><path class="d" d="M139.424,162.566q-19.9,5.333-39.8,10.67Q82.262,177.918,64.9,182.6c-7.059,1.891-14.133,3.723-21.192,5.613a4,4,0,1,0,2.127,7.714c11.708-3.134,23.43-6.211,35.132-9.368q16.986-4.583,33.977-9.149l26.607-7.13a4,4,0,0,0-2.127-7.714Z"/><path class="d" d="M147.494,192.685q-19.9,5.333-39.8,10.67-17.361,4.68-34.723,9.363c-7.058,1.892-14.133,3.724-21.192,5.614a4,4,0,0,0,2.127,7.714c11.708-3.134,23.43-6.211,35.132-9.368q16.986-4.584,33.978-9.15l26.606-7.129a4,4,0,1,0-2.127-7.714Z"/><path class="d" d="M155.564,222.8q-19.9,5.333-39.8,10.671-17.362,4.68-34.724,9.363c-7.058,1.891-14.132,3.724-21.191,5.613a4,4,0,1,0,2.126,7.714c11.708-3.133,23.431-6.21,35.132-9.368q16.988-4.582,33.978-9.149l26.606-7.129a4,4,0,1,0-2.127-7.715Z"/></svg>